<svg xmlns="http://www.w3.org/2000/svg" xmlns:xlink="http://www.w3.org/1999/xlink" viewBox="0 0 1114.55 811.85"><defs><linearGradient id="a" x1="908.93" y1="-15.02" x2="2027.6" y2="-15.02" gradientTransform="matrix(0.89, 0.45, 0.45, -0.89, -718.74, -341.49)" gradientUnits="userSpaceOnUse"><stop offset="0" stop-color="#fd3c2f"/><stop offset="1" stop-color="#fce955"/></linearGradient><linearGradient id="b" x1="0" y1="223.91" x2="1114.55" y2="223.91" gradientTransform="matrix(1, 0, 0, -1, 0, 812)" xlink:href="#a"/></defs><path d="M1114.55,516.74c-14.51,42.94-41.82,123-155.68,143.79-66.07,12-216.75-.68-309.69-47.39-273.24-137.31-184.72-396.44-360-484.52C170.91,69.18,54.65,143.77,54.65,143.77h0C115.41,82.58,266.88-79.8,520,47.38,793.21,184.71,704.69,443.83,880,531.91c118.28,59.44,234.54-15.15,234.54-15.15Z" transform="translate(0 0)" style="fill:url(#a)"/><path d="M1114.55,516.74c-26.86,82-89.28,295.11-372.53,295.11-305.8,0-343.07-271.28-539.22-271.28C70.42,540.57,0,659.42,0,659.42H0c26.85-82,89.28-295.09,372.52-295.09,305.81,0,343.07,271.28,539.22,271.28,132.38,0,202.76-118.86,202.76-118.86Z" transform="translate(0 0)" style="fill:url(#b)"/></svg>
