<svg xmlns="http://www.w3.org/2000/svg" xmlns:xlink="http://www.w3.org/1999/xlink" viewBox="0 0 1166.72 365.37"><defs><style>.cls-1{fill:#1a1c45;}.cls-2{fill:url(#linear-gradient);}.cls-3{fill:url(#linear-gradient-2);}</style><linearGradient id="linear-gradient" x1="622.95" y1="940.38" x2="996.9" y2="940.38" gradientTransform="translate(-105.39 -1093.21) rotate(26.68)" gradientUnits="userSpaceOnUse"><stop offset="0" stop-color="#fd3c2f"/><stop offset="1" stop-color="#fce955"/></linearGradient><linearGradient id="linear-gradient-2" x1="0" y1="196.59" x2="372.57" y2="196.59" gradientTransform="matrix(1, 0, 0, 1, 0, 0)" xlink:href="#linear-gradient"/></defs><g id="Layer_2" data-name="Layer 2"><g id="Layer_1-2" data-name="Layer 1"><path class="cls-1" d="M412.67,66.48V23.22H616.48V66.48h-76v204.9H488.65V66.48Z"/><path class="cls-1" d="M677.07,274.89q-17.8,0-31.74-6.24a50.1,50.1,0,0,1-22-18.53q-8.05-12.3-8.05-30.72,0-15.51,5.69-26.05a46.24,46.24,0,0,1,15.51-17,75.13,75.13,0,0,1,22.36-9.69,168.52,168.52,0,0,1,26.35-4.61q16.24-1.7,26.17-3.21t14.42-4.54a10.13,10.13,0,0,0,4.49-9v-.72q0-11.52-7.21-17.82t-20.42-6.3q-13.93,0-22.17,6.12A28.71,28.71,0,0,0,669.56,142l-47.74-3.88a65.23,65.23,0,0,1,14.3-29.38q10.65-12.42,27.56-19.15t39.2-6.72a120,120,0,0,1,29.75,3.63A78.69,78.69,0,0,1,758,97.74a55.09,55.09,0,0,1,17.5,19.57q6.43,11.94,6.43,28.54V271.38h-49V245.57h-1.45a51.69,51.69,0,0,1-12,15.33,54.06,54.06,0,0,1-18.05,10.3A73.65,73.65,0,0,1,677.07,274.89Zm14.79-35.62A42.92,42.92,0,0,0,712,234.73a35.14,35.14,0,0,0,13.69-12.3,31.89,31.89,0,0,0,5-17.57V185.11A26.26,26.26,0,0,1,724,188q-4.18,1.28-9.39,2.31t-10.43,1.81c-3.47.53-6.62,1-9.45,1.4a63.89,63.89,0,0,0-15.87,4.24,25.63,25.63,0,0,0-10.54,7.81,19.43,19.43,0,0,0-3.76,12.18q0,10.55,7.7,16.06T691.86,239.27Z"/><path class="cls-1" d="M847.92,61.27a27.87,27.87,0,0,1-19.69-7.63,24.3,24.3,0,0,1-8.18-18.42,24.41,24.41,0,0,1,8.24-18.48,29,29,0,0,1,39.32-.06,24.27,24.27,0,0,1,8.18,18.42,24.42,24.42,0,0,1-8.18,18.47A27.66,27.66,0,0,1,847.92,61.27ZM822,271.38V85.26h51.62V271.38Z"/><path class="cls-1" d="M966.42,23.22V271.38H914.8V23.22Z"/><path class="cls-1" d="M1162.47,138.33l-47.25,2.91a24.9,24.9,0,0,0-5.21-11,28.69,28.69,0,0,0-10.48-7.88,36.9,36.9,0,0,0-15.45-3q-12,0-20.24,5t-8.24,13.39a14.36,14.36,0,0,0,5.33,11.27q5.34,4.6,18.3,7.39l33.68,6.79q27.15,5.56,40.48,17.93t13.33,32.47A50.87,50.87,0,0,1,1156,245.81q-10.73,13.81-29.32,21.51t-42.84,7.7q-37,0-58.83-15.45t-25.62-42.11l50.77-2.67q2.3,11.28,11.15,17.15t22.66,5.88q13.56,0,21.87-5.27t8.42-13.64a14.41,14.41,0,0,0-5.94-11.57q-5.82-4.54-17.93-7L1058.15,194q-27.27-5.44-40.54-18.9t-13.27-34.29q0-17.94,9.76-30.9t27.51-20q17.75-7,41.62-7,35.26,0,55.56,14.9T1162.47,138.33Z"/><path class="cls-2" d="M372.57,172.73c-4.85,14.36-14,41.13-52,48.07-22.09,4-72.46-.23-103.52-15.84C125.67,159.06,155.26,72.44,96.67,43c-39.54-19.88-78.4,5.06-78.4,5.06h0c20.33-20.46,71-74.74,155.56-32.22,91.34,45.9,61.75,132.52,120.34,162,39.54,19.87,78.4-5.06,78.4-5.06Z"/><path class="cls-3" d="M372.57,172.73c-9,27.41-29.85,98.65-124.53,98.65-102.22,0-114.68-90.68-180.25-90.68C23.54,180.7,0,220.43,0,220.43H0C9,193,29.84,121.8,124.52,121.8c102.23,0,114.68,90.68,180.25,90.68,44.26,0,67.78-39.73,67.78-39.73Z"/><path d="M910.75,351.41a20.78,20.78,0,0,1-10.42-2.47,16.72,16.72,0,0,1-6.71-7,25.51,25.51,0,0,1,0-21.39,17.41,17.41,0,0,1,6.64-7.14,19.29,19.29,0,0,1,10.06-2.55,20.72,20.72,0,0,1,7.25,1.24,16.18,16.18,0,0,1,5.88,3.72,16.83,16.83,0,0,1,3.92,6.22,24.84,24.84,0,0,1,1.41,8.76v3H895.62V327h22.91a8.27,8.27,0,0,0-1-4.17,7.42,7.42,0,0,0-2.82-2.85,8.25,8.25,0,0,0-4.18-1,8.37,8.37,0,0,0-4.39,1.14,8,8,0,0,0-3,3,8.54,8.54,0,0,0-1.1,4.23v6.42a10.94,10.94,0,0,0,1.08,5,7.81,7.81,0,0,0,3.08,3.28,9.39,9.39,0,0,0,4.73,1.15,10.38,10.38,0,0,0,3.33-.51,7,7,0,0,0,2.58-1.54,6.64,6.64,0,0,0,1.64-2.5l10.07.66a13.7,13.7,0,0,1-3.13,6.33,15.68,15.68,0,0,1-6.09,4.19A22.82,22.82,0,0,1,910.75,351.41Z"/><path d="M944.33,311.37l7.21,13.73,7.38-13.73H970.1L958.72,331l11.69,19.64H959.28l-7.74-13.58-7.62,13.58H932.67L944.33,331l-11.25-19.63Z"/><path d="M976.54,365.37v-54h10.74V318h.48a14.61,14.61,0,0,1,2.09-3.24,10.86,10.86,0,0,1,3.58-2.76,12.2,12.2,0,0,1,5.51-1.11,14.82,14.82,0,0,1,7.92,2.23,15.72,15.72,0,0,1,5.81,6.73,25.71,25.71,0,0,1,2.17,11.24,26,26,0,0,1-2.11,11.08A15.71,15.71,0,0,1,1007,349a14.69,14.69,0,0,1-8.09,2.31,12.47,12.47,0,0,1-5.38-1,11.19,11.19,0,0,1-3.62-2.64,13.69,13.69,0,0,1-2.15-3.24h-.33v21ZM987.2,331a17.7,17.7,0,0,0,1,6.12,9,9,0,0,0,2.82,4.05,7.64,7.64,0,0,0,9,0,9,9,0,0,0,2.8-4.09,19.42,19.42,0,0,0,0-12,9,9,0,0,0-2.78-4,7.81,7.81,0,0,0-9-.05,8.81,8.81,0,0,0-2.8,4A17.43,17.43,0,0,0,987.2,331Z"/><path d="M1022.08,350.64V311.37h10.56v6.85h.41a10.12,10.12,0,0,1,3.6-5.53,9.48,9.48,0,0,1,5.83-1.88,16.29,16.29,0,0,1,1.77.1,13,13,0,0,1,1.66.28v9.66a16.19,16.19,0,0,0-2.13-.41,20.68,20.68,0,0,0-2.48-.17,8.72,8.72,0,0,0-4.28,1,7.66,7.66,0,0,0-3,2.88,8.14,8.14,0,0,0-1.09,4.24v22.22Z"/><path d="M1067.56,351.41a20.78,20.78,0,0,1-10.42-2.47,16.72,16.72,0,0,1-6.71-7,25.51,25.51,0,0,1,0-21.39,17.41,17.41,0,0,1,6.64-7.14,19.26,19.26,0,0,1,10.06-2.55,20.76,20.76,0,0,1,7.25,1.24,16.18,16.18,0,0,1,5.88,3.72,17.09,17.09,0,0,1,3.92,6.22,24.84,24.84,0,0,1,1.41,8.76v3h-33.16V327h22.9a8.37,8.37,0,0,0-1-4.17,7.42,7.42,0,0,0-2.82-2.85,8.25,8.25,0,0,0-4.18-1,8.37,8.37,0,0,0-4.39,1.14,8.12,8.12,0,0,0-3,3,8.76,8.76,0,0,0-1.1,4.23v6.42a10.94,10.94,0,0,0,1.09,5,7.81,7.81,0,0,0,3.08,3.28,9.39,9.39,0,0,0,4.73,1.15,10.38,10.38,0,0,0,3.33-.51,7,7,0,0,0,2.58-1.54,6.62,6.62,0,0,0,1.63-2.5l10.08.66a13.8,13.8,0,0,1-3.13,6.33,15.68,15.68,0,0,1-6.09,4.19A22.82,22.82,0,0,1,1067.56,351.41Z"/><path d="M1125.37,322.57l-10,.61a5.26,5.26,0,0,0-1.1-2.31,6.07,6.07,0,0,0-2.21-1.67,7.9,7.9,0,0,0-3.26-.62,8,8,0,0,0-4.27,1.06,3.21,3.21,0,0,0-1.74,2.83,3,3,0,0,0,1.13,2.37,8.84,8.84,0,0,0,3.86,1.56l7.1,1.43q5.73,1.19,8.54,3.79a8.89,8.89,0,0,1,2.82,6.85,10.77,10.77,0,0,1-2.27,6.78,14.73,14.73,0,0,1-6.18,4.53,23.37,23.37,0,0,1-9,1.63q-7.8,0-12.42-3.26a12.62,12.62,0,0,1-5.4-8.89l10.71-.56a5.46,5.46,0,0,0,2.35,3.62,10,10,0,0,0,9.4.13,3.39,3.39,0,0,0,1.78-2.88,3,3,0,0,0-1.26-2.44,9.12,9.12,0,0,0-3.78-1.47l-6.8-1.36q-5.76-1.14-8.55-4a9.85,9.85,0,0,1-2.81-7.23,10.55,10.55,0,0,1,2.06-6.52,13,13,0,0,1,5.81-4.22,23.71,23.71,0,0,1,8.78-1.48q7.44,0,11.72,3.14A12.16,12.16,0,0,1,1125.37,322.57Z"/><path d="M1165.82,322.57l-10,.61a5.26,5.26,0,0,0-1.1-2.31,6.07,6.07,0,0,0-2.21-1.67,7.9,7.9,0,0,0-3.26-.62,8,8,0,0,0-4.27,1.06,3.21,3.21,0,0,0-1.74,2.83,3,3,0,0,0,1.12,2.37,8.89,8.89,0,0,0,3.86,1.56l7.11,1.43q5.73,1.19,8.54,3.79a8.89,8.89,0,0,1,2.82,6.85,10.77,10.77,0,0,1-2.27,6.78,14.77,14.77,0,0,1-6.19,4.53,23.28,23.28,0,0,1-9,1.63q-7.8,0-12.42-3.26a12.58,12.58,0,0,1-5.4-8.89l10.71-.56a5.46,5.46,0,0,0,2.35,3.62,8.44,8.44,0,0,0,4.78,1.24,8.54,8.54,0,0,0,4.62-1.11,3.38,3.38,0,0,0,1.77-2.88,3,3,0,0,0-1.25-2.44,9.12,9.12,0,0,0-3.78-1.47l-6.8-1.36q-5.76-1.14-8.56-4a9.88,9.88,0,0,1-2.8-7.23,10.55,10.55,0,0,1,2.06-6.52,13,13,0,0,1,5.81-4.22,23.71,23.71,0,0,1,8.78-1.48q7.44,0,11.72,3.14A12.16,12.16,0,0,1,1165.82,322.57Z"/><rect x="815.18" y="356" width="155.22" height="4"/><rect x="850.58" y="336.28" width="35.4" height="4"/><rect x="832.88" y="346.14" width="53.1" height="4"/></g></g></svg>