<?xml version="1.0" standalone="no"?>
<!DOCTYPE svg PUBLIC "-//W3C//DTD SVG 20010904//EN"
 "http://www.w3.org/TR/2001/REC-SVG-20010904/DTD/svg10.dtd">
<svg version="1.0" xmlns="http://www.w3.org/2000/svg"
 width="1116.000000pt" height="1116.000000pt" viewBox="0 0 1116.000000 1116.000000"
 preserveAspectRatio="xMidYMid meet">
<metadata>
Created by potrace 1.14, written by Peter Selinger 2001-2017
</metadata>
<g transform="translate(0.000000,1116.000000) scale(0.100000,-0.100000)"
fill="#000000" stroke="none">
<path d="M3207 9643 c-2 -1 -42 -5 -90 -8 -49 -4 -96 -8 -106 -10 -10 -2 -42
-6 -71 -10 -29 -4 -62 -9 -74 -11 -12 -3 -30 -7 -41 -8 -53 -9 -97 -18 -175
-37 -47 -11 -92 -22 -100 -24 -55 -12 -316 -105 -420 -150 -112 -48 -309 -145
-335 -165 -5 -4 -37 -22 -70 -40 -191 -105 -539 -364 -757 -565 -110 -101
-417 -405 -410 -405 5 0 12 4 18 9 30 31 340 170 494 223 94 32 332 94 395
103 22 3 63 10 90 15 122 23 424 33 555 19 91 -10 167 -20 189 -24 279 -55
526 -147 739 -277 48 -29 92 -56 97 -60 245 -180 426 -377 589 -641 133 -216
283 -555 436 -987 102 -287 106 -299 168 -468 l60 -163 -52 6 c-28 3 -71 9
-96 12 -294 37 -854 31 -1140 -12 -44 -7 -106 -15 -145 -20 -136 -18 -532
-114 -625 -152 -8 -3 -19 -7 -25 -8 -5 -2 -53 -19 -105 -40 -377 -147 -686
-333 -975 -585 -63 -56 -228 -220 -281 -281 -89 -101 -99 -113 -185 -229 -218
-292 -379 -586 -545 -997 -54 -134 -207 -573 -201 -579 1 -2 42 50 90 114 47
64 103 135 123 157 90 99 216 225 284 285 41 36 80 70 88 77 91 85 404 277
562 346 225 97 402 144 663 175 75 9 381 8 440 -2 20 -3 53 -8 72 -11 350 -49
724 -226 1085 -513 198 -158 332 -280 734 -666 33 -32 115 -109 180 -170 65
-61 128 -120 140 -131 195 -183 502 -424 711 -560 66 -43 132 -86 147 -96 15
-11 29 -19 31 -19 3 0 47 -24 100 -54 272 -154 596 -281 919 -360 78 -19 157
-37 173 -40 17 -2 55 -10 85 -16 30 -6 75 -13 100 -16 25 -3 56 -7 70 -9 14
-3 50 -7 80 -10 30 -4 71 -8 90 -10 197 -24 693 -24 900 0 19 2 62 6 95 10 67
7 142 16 165 20 8 1 40 6 70 11 30 4 57 8 60 9 7 2 81 17 105 21 16 3 81 17
135 29 3 0 14 4 25 8 11 3 31 8 45 11 48 9 226 64 324 100 819 299 1436 868
1857 1711 74 146 192 418 187 428 0 1 9 21 21 45 12 23 19 42 16 42 -3 0 0 10
6 22 13 25 159 445 159 459 0 5 -21 -4 -47 -19 -205 -120 -556 -251 -813 -301
-97 -20 -104 -21 -160 -27 -30 -3 -57 -7 -60 -9 -11 -7 -200 -17 -300 -17
-282 1 -548 53 -804 158 -370 151 -652 372 -883 691 -105 145 -245 399 -328
593 -15 36 -34 79 -41 95 -25 59 -131 341 -178 475 -26 74 -51 144 -56 155 -4
11 -29 81 -56 155 -231 655 -429 1075 -683 1445 -54 79 -140 195 -151 205 -3
3 -21 25 -40 50 -59 76 -108 129 -269 290 -265 264 -528 460 -896 668 -49 28
-101 55 -115 61 -14 6 -32 15 -40 21 -12 8 -211 103 -295 140 -263 118 -633
233 -915 286 -52 10 -137 23 -177 29 -24 3 -60 7 -80 10 -111 14 -546 29 -556
18z"/>
</g>
</svg>
